<svg width="800" height="600" viewBox="0 0 800 600" fill="none" xmlns="http://www.w3.org/2000/svg">
  <rect width="800" height="600" fill="none"/>
  
  <!-- พื้นหลัง -->
  <path d="M0 0 L800 0 L800 600 L0 600 Z" fill="#f0f9ff" opacity="0.3"/>
  
  <!-- กราฟิกพื้นหลัง -->
  <circle cx="400" cy="300" r="250" fill="#bae6fd" opacity="0.2"/>
  <circle cx="400" cy="300" r="200" fill="#7dd3fc" opacity="0.2"/>
  <circle cx="400" cy="300" r="150" fill="#38bdf8" opacity="0.2"/>
  
  <!-- รูปคน -->
  <circle cx="400" cy="180" r="50" fill="#0ea5e9"/>
  <path d="M320 320 Q400 400 480 320 Q500 460 400 500 Q300 460 320 320 Z" fill="#0ea5e9"/>
  
  <!-- คอมพิวเตอร์ -->
  <rect x="280" y="350" width="240" height="160" rx="10" fill="#0369a1"/>
  <rect x="300" y="370" width="200" height="120" rx="5" fill="#e0f2fe"/>
  <rect x="330" y="510" width="140" height="20" rx="5" fill="#0369a1"/>
  
  <!-- ไอคอนพนักงาน -->
  <circle cx="200" cy="150" r="30" fill="#0ea5e9" opacity="0.7"/>
  <circle cx="600" cy="150" r="30" fill="#0ea5e9" opacity="0.7"/>
  <circle cx="150" cy="350" r="30" fill="#0ea5e9" opacity="0.7"/>
  <circle cx="650" cy="350" r="30" fill="#0ea5e9" opacity="0.7"/>
  <circle cx="250" cy="500" r="30" fill="#0ea5e9" opacity="0.7"/>
  <circle cx="550" cy="500" r="30" fill="#0ea5e9" opacity="0.7"/>
  
  <!-- เส้นเชื่อมโยง -->
  <line x1="200" y1="150" x2="370" y2="180" stroke="#0ea5e9" stroke-width="2" opacity="0.5"/>
  <line x1="600" y1="150" x2="430" y2="180" stroke="#0ea5e9" stroke-width="2" opacity="0.5"/>
  <line x1="150" y1="350" x2="280" y2="400" stroke="#0ea5e9" stroke-width="2" opacity="0.5"/>
  <line x1="650" y1="350" x2="520" y2="400" stroke="#0ea5e9" stroke-width="2" opacity="0.5"/>
  <line x1="250" y1="500" x2="350" y2="470" stroke="#0ea5e9" stroke-width="2" opacity="0.5"/>
  <line x1="550" y1="500" x2="450" y2="470" stroke="#0ea5e9" stroke-width="2" opacity="0.5"/>
</svg> 